<svg width="372" height="49" viewBox="0 0 372 49" fill="none" xmlns="http://www.w3.org/2000/svg">
<path d="M0.59375 47V1.5H8.71875L26.625 30.875V1.5H35V47H26.75L8.96875 16.5938V47H0.59375ZM58.5312 48.0938C55.0729 48.0938 52.0938 47.2604 49.5938 45.5938C47.1146 43.9271 45.2604 41.6562 44.0312 38.7812C42.8229 35.8854 42.2188 32.5208 42.2188 28.6875V1.5H50.5938V28.6875C50.5938 30.2083 50.7292 31.6354 51 32.9688C51.2708 34.3021 51.6979 35.5625 52.2812 36.75C52.8646 37.9375 53.6875 38.875 54.75 39.5625C55.8333 40.25 57.0938 40.5938 58.5312 40.5938C59.6979 40.5938 60.7396 40.3646 61.6562 39.9062C62.5938 39.4271 63.3542 38.8125 63.9375 38.0625C64.5417 37.2917 65.0417 36.3854 65.4375 35.3438C65.8333 34.2812 66.1042 33.2083 66.25 32.125C66.4167 31.0208 66.5 29.875 66.5 28.6875V1.5H74.875V28.6875C74.875 32.5208 74.2604 35.8854 73.0312 38.7812C71.8021 41.6562 69.9479 43.9271 67.4688 45.5938C64.9896 47.2604 62.0104 48.0938 58.5312 48.0938ZM141.214 34.375L149.589 33.0312C150.11 35.1354 151.068 36.8854 152.464 38.2812C153.86 39.6562 155.703 40.3438 157.995 40.3438C160.307 40.3438 162.089 39.7917 163.339 38.6875C164.61 37.5833 165.245 36.1458 165.245 34.375C165.245 33.4167 165.047 32.5521 164.651 31.7812C164.255 30.9896 163.755 30.3438 163.151 29.8438C162.568 29.3229 161.776 28.8125 160.776 28.3125C159.797 27.7917 158.86 27.3646 157.964 27.0312C157.089 26.6979 155.995 26.2708 154.682 25.75C153.37 25.2292 152.245 24.75 151.307 24.3125C150.057 23.7083 149.005 23.1354 148.151 22.5938C147.297 22.0312 146.422 21.3125 145.526 20.4375C144.651 19.5417 143.985 18.4688 143.526 17.2188C143.068 15.9688 142.839 14.5417 142.839 12.9375C142.839 10.8958 143.255 9.0625 144.089 7.4375C144.943 5.79167 146.089 4.46875 147.526 3.46875C148.964 2.44792 150.568 1.67708 152.339 1.15625C154.13 0.635417 156.016 0.375 157.995 0.375C161.495 0.375 164.578 1.28125 167.245 3.09375C169.932 4.90625 171.735 7.1875 172.651 9.9375L164.12 11.5312C163.099 9.11458 161.057 7.90625 157.995 7.90625C156.057 7.90625 154.474 8.30208 153.245 9.09375C152.016 9.86458 151.401 11.1458 151.401 12.9375C151.401 13.7708 151.682 14.5417 152.245 15.25C152.807 15.9583 153.599 16.5938 154.62 17.1562C155.662 17.6979 156.672 18.1771 157.651 18.5938C158.651 18.9896 159.797 19.4375 161.089 19.9375C162.401 20.4167 163.391 20.8125 164.057 21.125C165.245 21.6875 166.287 22.2396 167.182 22.7812C168.078 23.3229 168.964 23.9896 169.839 24.7812C170.714 25.5521 171.422 26.3854 171.964 27.2812C172.526 28.1562 172.974 29.1979 173.307 30.4062C173.641 31.6146 173.807 32.9375 173.807 34.375C173.807 38.4792 172.297 41.7604 169.276 44.2188C166.255 46.6771 162.495 47.9062 157.995 47.9062C153.641 47.9062 149.901 46.6667 146.776 44.1875C143.672 41.6875 141.818 38.4167 141.214 34.375ZM178.62 1.5H216.182V9H201.901V47H193.526V9H178.62V1.5Z" fill="#D946EF"/>
<path d="M110.406 47H100.812L94.875 36.5312L88.9375 47H79.3438L90 30.25L79.9062 13.4688H88.9688L94.9062 23.7812L100.75 13.4688H110.562L99.75 29.9688L110.406 47ZM120.654 20.625H116.247V13.4688H120.654V5.65625H128.716V13.4688H133.529V20.625H128.716V37.7188C128.716 39.6979 129.872 40.6875 132.185 40.6875H133.404V47.4688H132.185C129.956 47.4688 128.091 47.2812 126.591 46.9062C125.112 46.5104 123.935 45.9062 123.06 45.0938C122.185 44.2604 121.56 43.2708 121.185 42.125C120.831 40.9583 120.654 39.5312 120.654 37.8438V20.625ZM239.589 32.1875C238.505 31.1458 237.047 30.625 235.214 30.625C233.38 30.625 231.86 31.1562 230.651 32.2188C229.464 33.2604 228.87 34.4792 228.87 35.875C228.87 37.2708 229.464 38.4792 230.651 39.5C231.839 40.5208 233.36 41.0312 235.214 41.0312C237.047 41.0312 238.505 40.5312 239.589 39.5312C240.672 38.5104 241.214 37.2917 241.214 35.875C241.214 34.4583 240.672 33.2292 239.589 32.1875ZM232.557 23.8438C234.62 23.8438 236.432 24.375 237.995 25.4375C239.557 26.4792 240.547 27.6667 240.964 29V26.4375C240.964 25.2083 240.787 24.1354 240.432 23.2188C240.099 22.3021 239.672 21.5833 239.151 21.0625C238.63 20.5208 238.005 20.0938 237.276 19.7812C236.568 19.4479 235.891 19.2292 235.245 19.125C234.62 19.0208 233.953 18.9688 233.245 18.9688C232.287 18.9688 231.339 19.0729 230.401 19.2812C229.485 19.4688 228.807 19.6562 228.37 19.8438C227.932 20.0104 227.307 20.2708 226.495 20.625L223.276 15.5C224.214 14.75 225.693 14.0729 227.714 13.4688C229.735 12.8646 231.578 12.5625 233.245 12.5625C234.953 12.5625 236.547 12.7292 238.026 13.0625C239.526 13.375 240.964 13.9167 242.339 14.6875C243.714 15.4583 244.891 16.4271 245.87 17.5938C246.849 18.7396 247.62 20.1979 248.182 21.9688C248.766 23.7396 249.057 25.7396 249.057 27.9688V37.4688V47H241.026V42.75C240.589 44.0833 239.599 45.2812 238.057 46.3438C236.537 47.3854 234.745 47.9062 232.682 47.9062C229.495 47.9062 226.797 46.75 224.589 44.4375C222.401 42.125 221.307 39.25 221.307 35.8125C221.307 32.375 222.401 29.5208 224.589 27.25C226.776 24.9792 229.432 23.8438 232.557 23.8438ZM277.805 21.7812C275.555 20.5104 273.93 19.875 272.93 19.875C271.784 19.875 270.784 20.1771 269.93 20.7812C269.076 21.3854 268.42 22.1979 267.961 23.2188C267.524 24.2188 267.201 25.2604 266.992 26.3438C266.784 27.4271 266.68 28.5521 266.68 29.7188V47H258.617V13.4688H266.68V18.5C267.555 16.8333 268.753 15.4271 270.274 14.2812C271.795 13.1354 273.19 12.5625 274.461 12.5625C275.503 12.5625 276.597 12.8438 277.742 13.4062C278.909 13.9479 279.94 14.6458 280.836 15.5L277.805 21.7812ZM290.834 20.625H286.427V13.4688H290.834V5.65625H298.896V13.4688H303.709V20.625H298.896V37.7188C298.896 39.6979 300.052 40.6875 302.365 40.6875H303.584V47.4688H302.365C300.136 47.4688 298.271 47.2812 296.771 46.9062C295.292 46.5104 294.115 45.9062 293.24 45.0938C292.365 44.2604 291.74 43.2708 291.365 42.125C291.011 40.9583 290.834 39.5312 290.834 37.8438V20.625ZM320.144 26.6562H333.05C332.904 24.7812 332.258 23.1875 331.112 21.875C329.967 20.5417 328.456 19.875 326.581 19.875C324.727 19.875 323.217 20.5521 322.05 21.9062C320.904 23.2396 320.269 24.8229 320.144 26.6562ZM326.862 40.7188C328.925 40.7188 330.529 40.0312 331.675 38.6562L338.8 41.7188C337.508 43.6771 335.748 45.1979 333.519 46.2812C331.29 47.3646 329.071 47.9062 326.862 47.9062C324.8 47.9062 322.831 47.4583 320.956 46.5625C319.081 45.6667 317.446 44.4479 316.05 42.9062C314.675 41.3646 313.581 39.4896 312.769 37.2812C311.956 35.0729 311.55 32.7188 311.55 30.2188C311.55 25.2188 313.008 21.0521 315.925 17.7188C318.842 14.3646 322.394 12.6875 326.581 12.6875C329.331 12.6875 331.79 13.4479 333.956 14.9688C336.144 16.4688 337.842 18.5521 339.05 21.2188C340.258 23.8854 340.862 26.8854 340.862 30.2188V32.3438H320.112C320.133 33.6979 320.31 34.9062 320.644 35.9688C320.977 37.0104 321.383 37.8229 321.862 38.4062C322.342 38.9896 322.894 39.4688 323.519 39.8438C324.144 40.1979 324.717 40.4375 325.237 40.5625C325.779 40.6667 326.321 40.7188 326.862 40.7188ZM368.547 21.7812C366.297 20.5104 364.672 19.875 363.672 19.875C362.527 19.875 361.527 20.1771 360.672 20.7812C359.818 21.3854 359.162 22.1979 358.704 23.2188C358.266 24.2188 357.943 25.2604 357.735 26.3438C357.527 27.4271 357.422 28.5521 357.422 29.7188V47H349.36V13.4688H357.422V18.5C358.297 16.8333 359.495 15.4271 361.016 14.2812C362.537 13.1354 363.933 12.5625 365.204 12.5625C366.245 12.5625 367.339 12.8438 368.485 13.4062C369.652 13.9479 370.683 14.6458 371.579 15.5L368.547 21.7812Z" fill="#D946EF"/>
<path d="M110.406 47H100.812L94.875 36.5312L88.9375 47H79.3438L90 30.25L79.9062 13.4688H88.9688L94.9062 23.7812L100.75 13.4688H110.562L99.75 29.9688L110.406 47ZM120.654 20.625H116.247V13.4688H120.654V5.65625H128.716V13.4688H133.529V20.625H128.716V37.7188C128.716 39.6979 129.872 40.6875 132.185 40.6875H133.404V47.4688H132.185C129.956 47.4688 128.091 47.2812 126.591 46.9062C125.112 46.5104 123.935 45.9062 123.06 45.0938C122.185 44.2604 121.56 43.2708 121.185 42.125C120.831 40.9583 120.654 39.5312 120.654 37.8438V20.625ZM239.589 32.1875C238.505 31.1458 237.047 30.625 235.214 30.625C233.38 30.625 231.86 31.1562 230.651 32.2188C229.464 33.2604 228.87 34.4792 228.87 35.875C228.87 37.2708 229.464 38.4792 230.651 39.5C231.839 40.5208 233.36 41.0312 235.214 41.0312C237.047 41.0312 238.505 40.5312 239.589 39.5312C240.672 38.5104 241.214 37.2917 241.214 35.875C241.214 34.4583 240.672 33.2292 239.589 32.1875ZM232.557 23.8438C234.62 23.8438 236.432 24.375 237.995 25.4375C239.557 26.4792 240.547 27.6667 240.964 29V26.4375C240.964 25.2083 240.787 24.1354 240.432 23.2188C240.099 22.3021 239.672 21.5833 239.151 21.0625C238.63 20.5208 238.005 20.0938 237.276 19.7812C236.568 19.4479 235.891 19.2292 235.245 19.125C234.62 19.0208 233.953 18.9688 233.245 18.9688C232.287 18.9688 231.339 19.0729 230.401 19.2812C229.485 19.4688 228.807 19.6562 228.37 19.8438C227.932 20.0104 227.307 20.2708 226.495 20.625L223.276 15.5C224.214 14.75 225.693 14.0729 227.714 13.4688C229.735 12.8646 231.578 12.5625 233.245 12.5625C234.953 12.5625 236.547 12.7292 238.026 13.0625C239.526 13.375 240.964 13.9167 242.339 14.6875C243.714 15.4583 244.891 16.4271 245.87 17.5938C246.849 18.7396 247.62 20.1979 248.182 21.9688C248.766 23.7396 249.057 25.7396 249.057 27.9688V37.4688V47H241.026V42.75C240.589 44.0833 239.599 45.2812 238.057 46.3438C236.537 47.3854 234.745 47.9062 232.682 47.9062C229.495 47.9062 226.797 46.75 224.589 44.4375C222.401 42.125 221.307 39.25 221.307 35.8125C221.307 32.375 222.401 29.5208 224.589 27.25C226.776 24.9792 229.432 23.8438 232.557 23.8438ZM277.805 21.7812C275.555 20.5104 273.93 19.875 272.93 19.875C271.784 19.875 270.784 20.1771 269.93 20.7812C269.076 21.3854 268.42 22.1979 267.961 23.2188C267.524 24.2188 267.201 25.2604 266.992 26.3438C266.784 27.4271 266.68 28.5521 266.68 29.7188V47H258.617V13.4688H266.68V18.5C267.555 16.8333 268.753 15.4271 270.274 14.2812C271.795 13.1354 273.19 12.5625 274.461 12.5625C275.503 12.5625 276.597 12.8438 277.742 13.4062C278.909 13.9479 279.94 14.6458 280.836 15.5L277.805 21.7812ZM290.834 20.625H286.427V13.4688H290.834V5.65625H298.896V13.4688H303.709V20.625H298.896V37.7188C298.896 39.6979 300.052 40.6875 302.365 40.6875H303.584V47.4688H302.365C300.136 47.4688 298.271 47.2812 296.771 46.9062C295.292 46.5104 294.115 45.9062 293.24 45.0938C292.365 44.2604 291.74 43.2708 291.365 42.125C291.011 40.9583 290.834 39.5312 290.834 37.8438V20.625ZM320.144 26.6562H333.05C332.904 24.7812 332.258 23.1875 331.112 21.875C329.967 20.5417 328.456 19.875 326.581 19.875C324.727 19.875 323.217 20.5521 322.05 21.9062C320.904 23.2396 320.269 24.8229 320.144 26.6562ZM326.862 40.7188C328.925 40.7188 330.529 40.0312 331.675 38.6562L338.8 41.7188C337.508 43.6771 335.748 45.1979 333.519 46.2812C331.29 47.3646 329.071 47.9062 326.862 47.9062C324.8 47.9062 322.831 47.4583 320.956 46.5625C319.081 45.6667 317.446 44.4479 316.05 42.9062C314.675 41.3646 313.581 39.4896 312.769 37.2812C311.956 35.0729 311.55 32.7188 311.55 30.2188C311.55 25.2188 313.008 21.0521 315.925 17.7188C318.842 14.3646 322.394 12.6875 326.581 12.6875C329.331 12.6875 331.79 13.4479 333.956 14.9688C336.144 16.4688 337.842 18.5521 339.05 21.2188C340.258 23.8854 340.862 26.8854 340.862 30.2188V32.3438H320.112C320.133 33.6979 320.31 34.9062 320.644 35.9688C320.977 37.0104 321.383 37.8229 321.862 38.4062C322.342 38.9896 322.894 39.4688 323.519 39.8438C324.144 40.1979 324.717 40.4375 325.237 40.5625C325.779 40.6667 326.321 40.7188 326.862 40.7188ZM368.547 21.7812C366.297 20.5104 364.672 19.875 363.672 19.875C362.527 19.875 361.527 20.1771 360.672 20.7812C359.818 21.3854 359.162 22.1979 358.704 23.2188C358.266 24.2188 357.943 25.2604 357.735 26.3438C357.527 27.4271 357.422 28.5521 357.422 29.7188V47H349.36V13.4688H357.422V18.5C358.297 16.8333 359.495 15.4271 361.016 14.2812C362.537 13.1354 363.933 12.5625 365.204 12.5625C366.245 12.5625 367.339 12.8438 368.485 13.4062C369.652 13.9479 370.683 14.6458 371.579 15.5L368.547 21.7812Z" fill="#F2CFFD"/>
</svg>
